<svg width="205" height="67" viewBox="0 0 205 67" fill="none" xmlns="http://www.w3.org/2000/svg">
<path d="M25.9081 27.9882C27.1234 27.2659 28.4227 26.6749 29.7875 26.2342C31.5355 25.6809 33.3862 25.3806 35.3118 25.3806C37.144 25.3806 38.9201 25.6525 40.5839 26.1498C40.8083 25.0055 40.9204 23.8236 40.9204 22.6136C40.9204 22.3791 40.9111 22.1352 40.9018 21.9007C39.1164 21.4411 37.2375 21.1973 35.3025 21.1973C33.2741 21.1973 31.311 21.4693 29.4414 21.9664C27.9928 22.3604 26.5999 22.8856 25.2819 23.5422C19.3554 26.4969 14.906 31.9934 13.3542 38.6062C14.5695 39.3097 15.8781 39.8818 17.2522 40.2947C18.2898 35.0794 21.5054 30.6335 25.9081 27.9882Z" fill="#0063AA"/>
<path d="M57.858 42.9657C57.802 41.4463 57.5964 39.9643 57.2504 38.5385C55.6519 31.8695 51.1091 26.3448 45.08 23.437C45.0239 24.9472 44.8274 26.4292 44.4909 27.8454C49.0151 30.4626 52.3244 34.9648 53.3619 40.2832C53.5864 41.437 53.7077 42.6189 53.7077 43.8382C53.7077 44.0727 53.6984 44.307 53.6891 44.5416C53.3245 54.4092 45.2388 62.2883 35.3116 62.2883C25.3937 62.2883 17.308 54.4092 16.9341 44.5509C15.4852 44.1757 14.0924 43.6694 12.765 43.0315C12.7557 43.3035 12.7463 43.5662 12.7463 43.8382C12.7463 56.3415 22.8418 66.4716 35.3023 66.4716C47.7627 66.4716 57.858 56.3415 57.858 43.8382C57.8769 43.5473 57.8769 43.2565 57.858 42.9657Z" fill="#0063AA"/>
<path d="M22.5559 41.0838C20.7237 41.0838 18.9477 40.8115 17.2838 40.3145C15.9097 39.9019 14.601 39.3295 13.3858 38.6261C7.88006 35.4371 4.16904 29.4715 4.16904 22.6335C4.16904 12.447 12.4043 4.18341 22.5559 4.18341C25.9584 4.18341 29.1365 5.11201 31.866 6.72535C32.8943 5.68419 34.0254 4.74619 35.2406 3.93016C31.623 1.4445 27.2578 0 22.5559 0C10.0955 0 0 10.1302 0 22.6335C0 31.6195 5.22534 39.3858 12.7876 43.0439C14.1056 43.6818 15.5078 44.1977 16.9566 44.5636C18.7421 45.0232 20.6209 45.267 22.5559 45.267C27.2204 45.267 31.567 43.8413 35.1564 41.4025C33.9414 40.5772 32.8197 39.6296 31.7914 38.5887C29.0805 40.1739 25.921 41.0838 22.5559 41.0838Z" fill="#EB2725"/>
<path d="M38.6037 6.73389C37.3792 7.44675 36.2478 8.30031 35.2291 9.26643C38.5848 12.4743 40.7349 16.9485 40.9218 21.9198C40.9311 22.1543 40.9404 22.3982 40.9404 22.6327C40.9404 23.8427 40.8191 25.0245 40.604 26.1688C39.8561 30.0334 37.9119 33.4663 35.1731 36.0553C36.1918 37.0307 37.3229 37.8844 38.5381 38.5971C41.4267 35.6801 43.5297 31.9843 44.5113 27.848C44.8477 26.4222 45.0443 24.9495 45.1003 23.4394C45.1096 23.1673 45.1189 22.9047 45.1189 22.6327C45.1003 16.4326 42.6231 10.8235 38.6037 6.73389Z" fill="#EB2725"/>
<path d="M47.8494 41.1372C44.4469 41.1372 41.2686 40.2087 38.5391 38.5954C37.3241 37.8731 36.1931 37.0194 35.1741 36.0533C32.4724 33.4741 30.5468 30.0691 29.8085 26.2422C28.4345 26.6736 27.135 27.2646 25.9292 27.9962C26.9014 32.0669 28.9765 35.7065 31.8088 38.5861C32.8371 39.6271 33.9588 40.5746 35.1741 41.3999C38.7916 43.8761 43.157 45.3207 47.8589 45.3207C49.8873 45.3207 51.8501 45.0487 53.7197 44.5515C53.729 44.3172 53.7386 44.0826 53.7386 43.848C53.7386 42.6287 53.617 41.4468 53.3926 40.2931C51.626 40.8371 49.775 41.1372 47.8494 41.1372Z" fill="#FDE002"/>
<path d="M47.852 0.0551758C43.1875 0.0551758 38.8407 1.48092 35.2513 3.91966C34.0361 4.74509 32.905 5.68308 31.8767 6.71484C27.8106 10.8045 25.3054 16.4511 25.3054 22.6887C25.3054 22.9795 25.3148 23.2796 25.3241 23.5704C26.6421 22.9138 28.035 22.3792 29.4837 21.9946C29.6707 16.9858 31.8489 12.4928 35.242 9.27554C36.2607 8.30942 37.3921 7.45587 38.6166 6.743C41.3365 5.15781 44.4867 4.24795 47.8613 4.24795C58.0129 4.24795 66.2481 12.5116 66.2481 22.6981C66.2481 29.4329 62.6494 35.3327 57.2743 38.5501C57.6204 39.9758 57.8259 41.4578 57.8819 42.9772C65.3133 39.2724 70.4173 31.5809 70.4173 22.6981C70.3984 10.1854 60.3031 0.0551758 47.852 0.0551758Z" fill="#FDE002"/>
<path d="M76.0254 0.176758H100.208V4.40706H92.0941V48.4924H84.1393V4.40706H76.0254V0.176758Z" fill="black"/>
<path d="M129.081 15.3064H121.023V4.40707H113.068V44.1869H121.023V33.4471H129.081V41.2229C129.081 43.943 127.389 46.0252 124.005 47.4887C122.463 48.1547 120.855 48.4922 119.172 48.4922H114.442C111.788 48.4922 109.516 47.6856 107.647 46.0722C105.861 44.5151 104.964 42.733 104.964 40.7164V7.51179C104.964 4.85729 106.637 2.75621 109.983 1.20855C111.488 0.514439 113.05 0.176758 114.695 0.176758H119.34C122.855 0.176758 125.65 1.49932 127.725 4.13506C128.632 5.29815 129.09 6.48939 129.09 7.70876V15.3064H129.081Z" fill="black"/>
<path d="M134.887 40.7152V7.39812C134.887 4.77178 136.626 2.67069 140.093 1.10424C141.645 0.400764 143.216 0.0537109 144.805 0.0537109H149.282C152.862 0.0537109 155.695 1.37626 157.789 4.02139C158.714 5.20324 159.172 6.41324 159.172 7.65137V41.2218C159.172 43.9982 157.508 46.0899 154.199 47.5064C152.657 48.1628 151.021 48.4911 149.282 48.4911H144.45C140.907 48.4911 138.168 47.1312 136.205 44.4015C135.326 43.201 134.887 41.9722 134.887 40.7152ZM143.001 4.42472V44.1858H150.974V4.42472H143.001Z" fill="black"/>
<path d="M204.953 48.4922H196.839V4.40707H188.707V48.3704H180.677V4.40707H172.722V48.3704H164.609V7.82132C164.609 5.11054 166.226 2.94381 169.46 1.30235C170.937 0.55196 172.526 0.176758 174.255 0.176758H195.072C198.569 0.176758 201.392 1.4524 203.541 3.99434C204.495 5.1387 204.962 6.31115 204.962 7.51179V48.4922H204.953Z" fill="black"/>
<path d="M84.0218 58.3358H81.1427V66.3555H79.9649V58.3358H77.0952V57.3696H84.0218V58.3358Z" fill="black"/>
<path d="M93.9759 62.193H90.0968V65.382H94.6114V66.3482H88.9187V57.3623H94.5461V58.3285H90.0968V61.2269H93.9759V62.193Z" fill="black"/>
<path d="M106.23 63.4974C106.118 64.4447 105.772 65.1858 105.183 65.7017C104.594 66.2175 103.809 66.4802 102.837 66.4802C101.781 66.4802 100.93 66.0957 100.294 65.336C99.6587 64.5761 99.3408 63.5537 99.3408 62.2781V61.4152C99.3408 60.5804 99.4906 59.8488 99.7896 59.2109C100.089 58.573 100.509 58.0946 101.052 57.7475C101.594 57.41 102.229 57.2412 102.949 57.2412C103.902 57.2412 104.66 57.5036 105.239 58.0383C105.81 58.573 106.146 59.3046 106.239 60.2522H105.052C104.95 59.5299 104.725 59.014 104.389 58.6951C104.043 58.3761 103.566 58.2074 102.949 58.2074C102.192 58.2074 101.603 58.4886 101.173 59.0514C100.743 59.6142 100.528 60.4114 100.528 61.4433V62.3155C100.528 63.2912 100.734 64.0695 101.136 64.6419C101.538 65.214 102.108 65.5048 102.837 65.5048C103.491 65.5048 103.996 65.3546 104.351 65.0545C104.706 64.7544 104.931 64.2385 105.052 63.4974H106.23Z" fill="black"/>
<path d="M118.302 66.3482H117.115V62.193H112.6V66.3482H111.422V57.3623H112.6V61.2269H117.115V57.3623H118.302V66.3482Z" fill="black"/>
<path d="M135.6 62.3806H131.842V66.3482H130.664V57.3623H136.217V58.3285H131.851V61.4049H135.609V62.3806H135.6Z" fill="black"/>
<path d="M148.074 62.149C148.074 63.0305 147.924 63.7997 147.634 64.4562C147.345 65.113 146.924 65.61 146.382 65.9571C145.84 66.3041 145.204 66.4729 144.484 66.4729C143.783 66.4729 143.157 66.2949 142.605 65.9478C142.063 65.6007 141.633 65.1037 141.334 64.4562C141.035 63.809 140.876 63.0682 140.867 62.2145V61.5673C140.867 60.7044 141.016 59.9352 141.316 59.2787C141.615 58.6126 142.035 58.1061 142.587 57.7593C143.138 57.4026 143.765 57.2339 144.466 57.2339C145.185 57.2339 145.812 57.4122 146.363 57.7593C146.915 58.1061 147.335 58.6127 147.625 59.2694C147.924 59.9259 148.064 60.6951 148.064 61.5766V62.149H148.074ZM146.905 61.5673C146.905 60.498 146.69 59.682 146.27 59.1099C145.84 58.5376 145.241 58.2563 144.475 58.2563C143.727 58.2563 143.138 58.5376 142.708 59.1099C142.278 59.682 142.063 60.4698 142.044 61.483V62.1394C142.044 63.1714 142.26 63.9873 142.69 64.5783C143.12 65.1692 143.718 65.4601 144.475 65.4601C145.241 65.4601 145.83 65.1785 146.251 64.6253C146.672 64.0717 146.887 63.2651 146.896 62.2238V61.5673H146.905Z" fill="black"/>
<path d="M156.703 62.7089H154.6V66.3482H153.413V57.3623H156.376C157.386 57.3623 158.162 57.5969 158.704 58.0565C159.246 58.5161 159.517 59.1914 159.517 60.0731C159.517 60.636 159.368 61.1237 159.068 61.5363C158.769 61.9492 158.349 62.2586 157.807 62.465L159.91 66.2826V66.3577H158.638L156.703 62.7089ZM154.6 61.7427H156.414C157.002 61.7427 157.47 61.5925 157.816 61.2831C158.162 60.9735 158.339 60.5701 158.339 60.0543C158.339 59.501 158.171 59.0696 157.844 58.7788C157.517 58.4786 157.04 58.3285 156.414 58.3285H154.6V61.7427Z" fill="black"/>
<path d="M172.613 65.382H176.857V66.3482H171.426V57.3623H172.613V65.382Z" fill="black"/>
<path d="M183.043 66.3482H181.865V57.3623H183.043V66.3482Z" fill="black"/>
<path d="M193.709 62.3806H189.951V66.3482H188.773V57.3623H194.326V58.3285H189.961V61.4049H193.718V62.3806H193.709Z" fill="black"/>
<path d="M204.364 62.193H200.485V65.382H205V66.3482H199.307V57.3623H204.935V58.3285H200.485V61.2269H204.364V62.193Z" fill="black"/>
</svg>
